HIERARCHY
ROOT root
{
	OFFSET 0.000000 0.000000 0.000000
	CHANNELS 6 Xposition Yposition Zposition Zrotation Yrotation Xrotation
	JOINT lhip
	{
		OFFSET 0.058581 -0.082280 -0.017664
		CHANNELS 3 Zrotation Yrotation Xrotation
		JOINT lknee
		{
			OFFSET 0.043451 -0.386469 0.008037
			CHANNELS 3 Zrotation Yrotation Xrotation
			JOINT lankle
			{
				OFFSET -0.014790 -0.426874 -0.037428
				CHANNELS 3 Zrotation Yrotation Xrotation
				JOINT ltoe
				{
					OFFSET 0.041054 -0.060286 0.122042
					CHANNELS 3 Zrotation Yrotation Xrotation
					End Site
					{
						OFFSET 0.000000 0.000000 0.000000
					}
				}
			}
		}
	}
	JOINT rhip
	{
		OFFSET -0.060310 -0.090513 -0.013543
		CHANNELS 3 Zrotation Yrotation Xrotation
		JOINT rknee
		{
			OFFSET -0.043257 -0.383688 -0.004843
			CHANNELS 3 Zrotation Yrotation Xrotation
			JOINT rankle
			{
				OFFSET 0.019056 -0.420046 -0.034562
				CHANNELS 3 Zrotation Yrotation Xrotation
				JOINT rtoe
				{
					OFFSET -0.034840 -0.062106 0.130323
					CHANNELS 3 Zrotation Yrotation Xrotation
					End Site
					{
						OFFSET 0.000000 0.000000 0.000000
					}
				}
			}
		}
	}
	JOINT lowerback
	{
		OFFSET 0.004439 0.124404 -0.038385
		CHANNELS 3 Zrotation Yrotation Xrotation
		JOINT upperback
		{
			OFFSET 0.004488 0.137956 0.026820
			CHANNELS 3 Zrotation Yrotation Xrotation
			JOINT chest
			{
				OFFSET -0.002265 0.056032 0.002855
				CHANNELS 3 Zrotation Yrotation Xrotation
				JOINT lowerneck
				{
					OFFSET -0.013390 0.211636 -0.033468
					CHANNELS 3 Zrotation Yrotation Xrotation
					JOINT upperneck
					{
						OFFSET 0.010113 0.088937 0.050410
						CHANNELS 3 Zrotation Yrotation Xrotation
						End Site
						{
							OFFSET 0.000000 0.000000 0.000000
						}
					}
				}
				JOINT lclavicle
				{
					OFFSET 0.071702 0.114000 -0.018898
					CHANNELS 3 Zrotation Yrotation Xrotation
					JOINT lshoulder
					{
						OFFSET 0.122921 0.045205 -0.019046
						CHANNELS 3 Zrotation Yrotation Xrotation
						JOINT lelbow
						{
							OFFSET 0.255332 -0.015649 -0.022946
							CHANNELS 3 Zrotation Yrotation Xrotation
							JOINT lwrist
							{
								OFFSET 0.265709 0.012698 -0.007375
								CHANNELS 3 Zrotation Yrotation Xrotation
								End Site
								{
									OFFSET 0.000000 0.000000 0.000000
								}
							}
						}
					}
				}
				JOINT rclavicle
				{
					OFFSET -0.082954 0.112472 -0.023707
					CHANNELS 3 Zrotation Yrotation Xrotation
					JOINT rshoulder
					{
						OFFSET -0.113228 0.046853 -0.008472
						CHANNELS 3 Zrotation Yrotation Xrotation
						JOINT relbow
						{
							OFFSET -0.260127 -0.014369 -0.031269
							CHANNELS 3 Zrotation Yrotation Xrotation
							JOINT rwrist
							{
								OFFSET -0.269108 0.006794 -0.006027
								CHANNELS 3 Zrotation Yrotation Xrotation
								End Site
								{
									OFFSET 0.000000 0.000000 0.000000
								}
							}
						}
					}
				}
			}
		}
	}
}
MOTION
Frames: 7
Frame Time: 0.033333
0.477218 0.762097 0.984856 -87.993600 3.954271 86.272783 4.116682 0.429103 4.034776 -2.974877 -14.523243 4.925853 5.876425 7.836880 -16.924886 0.000000 -0.000000 0.000000 1.597525 -1.704805 2.566203 3.059711 2.434393 9.231505 2.790825 -2.493456 -12.697621 0.000000 -0.000000 0.000000 -1.412229 1.759457 7.520351 1.667473 -2.459250 2.059083 1.042836 -1.885477 2.748080 2.019857 2.208167 11.194797 4.518895 -0.851133 1.754528 -26.350193 3.292585 4.081470 -61.506645 -6.702056 6.664333 11.059445 -21.042931 4.553214 -3.687234 1.191561 -6.574588 24.401543 -1.430510 2.030319 62.808041 2.956910 10.215966 -15.084159 24.182411 -2.004136 7.081016 -1.572111 -7.654117 
0.477207 0.762110 0.984816 -87.933089 3.975770 86.279149 4.166880 0.398380 4.030371 -3.004038 -14.454290 4.914445 5.810531 7.682505 -16.920655 0.000000 -0.000000 0.000000 1.617813 -1.678711 2.647681 3.038288 2.275524 9.078725 2.810002 -2.435319 -12.578723 0.000000 -0.000000 0.000000 -1.338228 1.746984 7.585230 1.602640 -2.432421 1.863101 1.030849 -1.927117 2.831368 2.008161 2.275317 10.993985 4.422467 -0.894327 1.873212 -26.271024 3.338041 4.053539 -61.552288 -6.700360 6.695570 10.993264 -21.019809 4.708683 -3.733667 1.074876 -6.557789 24.316458 -1.452315 1.982152 62.930889 2.931013 10.325855 -15.181754 24.370613 -1.913146 6.952431 -1.554017 -7.888008 
0.477190 0.762100 0.984793 -87.896927 3.998509 86.329596 4.194645 0.402231 3.980462 -2.993981 -14.424102 4.864926 5.794163 7.636409 -16.935224 0.000000 -0.000000 0.000000 1.619774 -1.720084 2.578437 3.074753 2.251486 9.092046 2.794021 -2.377915 -12.622099 0.000000 -0.000000 0.000000 -1.305766 1.731954 7.540720 1.577161 -2.431221 1.781843 1.026912 -1.919869 2.881322 2.047218 2.286408 10.913804 4.405903 -0.926308 1.958568 -26.203189 3.392728 4.021601 -61.665579 -6.675462 6.786866 10.952485 -21.180876 4.882577 -3.693704 0.955614 -6.582958 24.272313 -1.505625 1.907986 62.981136 2.999815 10.323074 -15.092721 24.365965 -1.839003 6.901340 -1.423262 -7.917518 
0.477251 0.762058 0.984838 -87.931078 4.010511 86.337661 4.217764 0.385847 4.009269 -2.982307 -14.330152 4.798489 5.801459 7.581079 -16.899017 0.000000 -0.000000 0.000000 1.640167 -1.682198 2.595821 3.061425 2.249550 9.045294 2.826327 -2.313151 -12.609617 0.000000 -0.000000 0.000000 -1.252862 1.757639 7.511230 1.558343 -2.351639 1.764336 0.989171 -1.909276 2.908309 2.121072 2.261232 10.874408 4.408181 -0.930468 2.026068 -26.234342 3.405111 3.935504 -61.690527 -6.743030 6.848769 10.946500 -21.437042 4.849042 -3.733828 0.849658 -6.518278 24.225771 -1.469352 1.909466 63.042372 3.115809 10.356593 -15.093199 24.408078 -1.958142 6.895103 -1.399158 -8.007425 
0.477251 0.762024 0.984831 -87.945871 3.984756 86.361106 4.186378 0.425279 3.953133 -2.998385 -14.367718 4.848551 5.821489 7.598928 -16.856168 0.000000 -0.000000 0.000000 1.625790 -1.713283 2.459950 3.024199 2.234983 9.244728 2.820721 -2.320002 -12.636426 0.000000 -0.000000 0.000000 -1.280563 1.766883 7.505286 1.561736 -2.342411 1.726407 1.001917 -1.881480 2.860049 2.073515 2.273441 10.877012 4.419445 -0.894997 1.997164 -26.231183 3.379729 4.004695 -61.777123 -6.725558 6.865436 10.966773 -21.601889 4.827354 -3.678843 0.936990 -6.571844 24.199730 -1.459036 1.926551 63.088251 3.081650 10.366914 -15.181668 24.578060 -1.925935 6.947303 -1.430478 -7.999128 
0.477246 0.761998 0.984936 -87.926184 4.000345 86.333494 4.210321 0.399358 3.956780 -3.020705 -14.325655 4.912784 5.876341 7.598817 -16.923722 0.000000 -0.000000 0.000000 1.645072 -1.722345 2.575194 2.996156 2.181101 9.099288 2.809084 -2.233983 -12.570231 0.000000 -0.000000 0.000000 -1.269905 1.780377 7.537118 1.565271 -2.366625 1.737225 1.010372 -1.863711 2.812269 2.079565 2.269675 10.952958 4.435686 -0.885083 1.982426 -26.228355 3.358617 4.051778 -61.811607 -6.747185 6.916344 10.983963 -21.967699 4.946964 -3.759517 0.961234 -6.590834 24.149797 -1.396975 1.917923 63.180980 3.090022 10.356522 -15.232792 24.828348 -1.910005 6.959981 -1.455980 -8.029108 
0.477485 0.761990 0.984902 -87.942353 3.997236 86.403830 4.213004 0.366988 3.843583 -3.046586 -14.289420 4.943754 5.907298 7.596618 -16.939190 0.000000 -0.000000 0.000000 1.657265 -1.669401 2.409718 3.004271 2.191111 9.245834 2.798151 -2.341594 -12.623223 0.000000 -0.000000 0.000000 -1.273420 1.754796 7.515475 1.552845 -2.341764 1.675180 0.997691 -1.828239 2.837486 2.036772 2.250928 10.923183 4.432265 -0.917177 2.009395 -26.128685 3.373712 3.978862 -61.972951 -6.804979 7.012504 10.907908 -22.217232 5.071889 -3.822290 0.967025 -6.734152 24.101877 -1.391225 1.873406 63.251268 3.134218 10.435738 -15.145839 24.988428 -1.883823 7.028545 -1.531915 -8.179005 
